<svg xmlns="http://www.w3.org/2000/svg" viewBox="0 0 1200 630" width="1200" height="630">
  <!-- Navy background -->
  <rect width="1200" height="630" fill="#1a2744"/>

  <!-- M+ logo mark centred, scaled up -->
  <g transform="translate(480,140) scale(2)">
    <path d="M 0,0 L 30,0 L 60,40 L 90,0 L 120,0 L 120,100 L 80,100 L 80,55 L 65,75 L 55,75 L 40,55 L 40,100 L 0,100 Z" fill="#ffffff"/>
    <path d="M 15,40 L 15,30 L 25,30 L 25,40 L 35,40 L 35,50 L 25,50 L 25,60 L 15,60 L 15,50 L 5,50 L 5,40 Z" fill="#1a2744"/>
    <rect x="85" y="30" width="30" height="12" rx="2" fill="#0d9488"/>
    <rect x="85" y="48" width="30" height="12" rx="2" fill="#0d9488"/>
  </g>

  <!-- Wordmark -->
  <text x="600" y="430" text-anchor="middle" font-family="'Outfit','Segoe UI',sans-serif" font-size="48" font-weight="700" fill="#ffffff" letter-spacing="2">MaffsGames</text>

  <!-- Tagline -->
  <text x="600" y="480" text-anchor="middle" font-family="'Outfit','Segoe UI',sans-serif" font-size="24" font-weight="400" fill="#94a3b8">Free maths games for schools</text>
</svg>
